<?xml version="1.0" standalone="no"?>
<!DOCTYPE svg PUBLIC "-//W3C//DTD SVG 20010904//EN"
 "http://www.w3.org/TR/2001/REC-SVG-20010904/DTD/svg10.dtd">
<svg version="1.0" xmlns="http://www.w3.org/2000/svg"
 width="500.000000pt" height="500.000000pt" viewBox="0 0 500.000000 500.000000"
 preserveAspectRatio="xMidYMid meet">

<g transform="translate(0.000000,500.000000) scale(0.100000,-0.100000)"
fill="#000000" stroke="none">
<path d="M1547 3153 c-10 -3 -97 -56 -193 -118 l-175 -114 129 0 c140 -1 214
-16 257 -54 16 -14 40 -61 65 -127 l39 -105 1 233 0 234 -29 29 c-28 28 -51
33 -94 22z"/>
<path d="M1821 2917 c-48 -28 -66 -101 -36 -144 8 -12 41 -31 73 -43 72 -27
92 -45 92 -85 0 -84 -121 -104 -148 -25 -11 31 -42 42 -42 15 0 -25 28 -73 49
-85 11 -5 40 -10 65 -10 36 0 52 6 78 29 28 25 33 36 33 75 0 58 -28 88 -105
114 -67 23 -89 55 -68 99 19 39 59 51 93 29 15 -10 30 -27 32 -37 3 -10 14
-19 25 -19 15 0 18 5 13 23 -18 59 -101 94 -154 64z"/>
<path d="M3070 2870 c0 -49 -1 -50 -30 -50 -20 0 -30 -5 -30 -15 0 -10 10 -15
30 -15 l30 0 0 -125 c0 -104 2 -125 15 -125 13 0 15 21 15 125 l0 125 35 0
c46 0 49 27 3 32 -32 3 -33 5 -36 51 -2 33 -7 47 -18 47 -10 0 -14 -13 -14
-50z"/>
<path d="M4250 2730 c0 -162 2 -190 15 -190 10 0 15 10 15 28 1 15 12 41 26
57 l24 30 45 -50 c24 -27 44 -53 45 -57 0 -5 12 -8 26 -8 25 0 24 2 -26 62
-29 35 -55 68 -57 75 -3 7 18 42 47 78 48 60 50 65 28 65 -17 -1 -39 -21 -83
-80 -33 -44 -63 -80 -67 -80 -5 0 -8 59 -8 130 0 109 -2 130 -15 130 -13 0
-15 -28 -15 -190z"/>
<path d="M1190 2843 c-143 -6 -144 -6 -176 -76 -15 -34 -33 -81 -40 -104 -12
-40 -12 -42 8 -49 29 -9 557 -9 585 0 21 7 21 9 7 48 -8 22 -26 67 -40 99 -23
51 -31 60 -63 68 -41 10 -183 17 -281 14z"/>
<path d="M2098 2810 c-24 -18 -28 -19 -28 -5 0 10 -7 15 -17 13 -16 -3 -18
-18 -18 -141 -1 -125 1 -137 17 -137 16 0 18 11 18 104 0 117 11 141 66 152
24 5 37 0 60 -19 28 -24 29 -28 32 -131 3 -83 7 -106 18 -106 11 0 14 20 14
95 0 116 14 151 64 160 41 8 74 -7 86 -41 6 -14 10 -68 10 -120 0 -77 3 -94
15 -94 21 0 22 198 1 239 -28 54 -101 66 -158 27 -36 -24 -36 -24 -55 -4 -31
30 -92 35 -125 8z"/>
<path d="M2595 2811 c-52 -27 -77 -69 -77 -132 0 -86 56 -139 149 -139 41 0
58 5 82 26 l31 26 0 -26 c0 -16 6 -26 15 -26 13 0 15 22 15 140 0 118 -2 140
-15 140 -8 0 -15 -9 -15 -20 0 -25 -8 -25 -36 1 -33 31 -99 35 -149 10z m123
-31 c66 -41 76 -125 20 -181 -24 -23 -38 -29 -74 -29 -118 0 -157 161 -52 213
44 22 66 21 106 -3z"/>
<path d="M2953 2818 c-13 -6 -23 -15 -23 -20 0 -4 -4 -8 -10 -8 -5 0 -10 7
-10 15 0 8 -7 15 -15 15 -13 0 -15 -22 -15 -140 0 -118 2 -140 15 -140 12 0
15 16 15 85 0 102 17 151 54 161 17 4 26 13 26 25 0 21 -5 22 -37 7z"/>
<path d="M3480 2819 c-13 -6 -33 -17 -42 -26 -17 -15 -18 -15 -18 5 0 20 -29
33 -31 15 -1 -17 -1 -271 0 -320 1 -40 5 -53 16 -53 12 0 15 15 15 76 l0 76
32 -27 c29 -24 38 -27 90 -23 63 5 96 27 125 82 19 37 12 109 -14 145 -38 52
-114 73 -173 50z m111 -42 c96 -65 54 -207 -61 -207 -34 0 -48 6 -76 34 -28
28 -34 41 -34 78 0 51 21 85 64 104 44 19 68 17 107 -9z"/>
<path d="M3811 2813 c-71 -37 -100 -124 -66 -196 36 -77 151 -104 214 -51 l31
26 0 -26 c0 -19 5 -26 20 -26 19 0 20 7 20 140 0 133 -1 140 -20 140 -13 0
-20 -7 -20 -20 0 -20 0 -20 -29 1 -40 29 -107 35 -150 12z m114 -27 c103 -44
71 -216 -41 -216 -120 0 -164 148 -62 210 39 24 57 25 103 6z"/>
<path d="M4156 2809 c-21 -17 -26 -18 -26 -5 0 22 -30 20 -31 -1 -5 -84 -6
-240 -2 -250 3 -7 11 -13 19 -13 11 0 14 21 14 99 0 84 3 102 21 125 11 14 29
26 40 26 12 0 19 7 19 20 0 26 -20 25 -54 -1z"/>
<path d="M790 2675 c-140 -91 -170 -121 -170 -174 0 -52 28 -84 129 -149 l81
-51 0 99 c0 54 3 105 6 113 4 11 -2 16 -23 19 -24 3 -28 7 -26 32 3 38 30 66
64 66 24 0 29 6 47 60 12 33 18 60 14 59 -4 0 -59 -34 -122 -74z"/>
<path d="M3200 2675 c0 -12 14 -15 65 -15 51 0 65 3 65 15 0 12 -14 15 -65 15
-51 0 -65 -3 -65 -15z"/>
<path d="M890 2445 l0 -35 50 0 c29 0 61 -7 75 -16 32 -21 71 -3 56 25 -12 21
-110 61 -152 61 -26 0 -29 -3 -29 -35z"/>
<path d="M1553 2462 c-41 -17 -83 -48 -83 -62 0 -16 46 -19 67 -5 12 8 45 15
73 15 l50 0 0 35 c0 33 -2 35 -32 34 -18 0 -52 -8 -75 -17z"/>
<path d="M2923 2260 c0 -36 2 -51 4 -35 3 17 9 36 15 43 7 8 7 12 0 12 -6 0
-13 10 -15 23 -2 12 -4 -7 -4 -43z"/>
<path d="M3151 2263 c0 -35 2 -63 7 -63 4 0 6 21 4 48 -5 75 -10 82 -11 15z"/>
<path d="M3573 2260 c0 -36 1 -57 4 -47 2 9 7 17 10 17 4 0 16 -8 27 -17 20
-18 20 -18 4 8 -15 24 -15 27 0 45 9 10 5 8 -10 -5 l-27 -23 -4 43 c-2 32 -4
25 -4 -21z"/>
<path d="M1797 2280 c10 -19 21 -46 24 -60 6 -24 7 -23 8 6 0 16 8 39 16 50 8
10 14 24 15 29 0 6 -8 -3 -19 -18 l-18 -28 -22 28 -22 28 18 -35z"/>
<path d="M2659 2293 c0 -10 -2 -31 -2 -48 -2 -23 -7 -30 -22 -30 -16 0 -20 7
-20 32 0 18 -4 28 -8 24 -5 -5 -7 -21 -5 -37 3 -25 7 -29 36 -30 l32 -1 0 54
c0 29 -2 53 -5 53 -3 0 -5 -8 -6 -17z"/>
<path d="M2179 2295 c-8 -13 1 -95 10 -95 4 0 5 17 3 38 -5 60 -7 68 -13 57z"/>
<path d="M2462 2256 c2 -34 8 -51 18 -53 12 -4 12 -2 2 5 -7 5 -12 24 -10 45
1 20 -1 40 -6 44 -4 4 -6 -14 -4 -41z"/>
<path d="M4182 2256 c2 -34 8 -51 18 -53 12 -4 12 -2 2 5 -7 5 -12 24 -10 45
1 20 -1 40 -6 44 -4 4 -6 -14 -4 -41z"/>
<path d="M1887 2273 c-4 -3 -7 -19 -7 -34 0 -37 45 -53 67 -24 17 24 16 27 -3
51 -14 18 -15 18 -6 0 14 -29 3 -58 -22 -54 -16 2 -21 10 -21 36 0 17 0 32 -1
32 0 0 -4 -3 -7 -7z"/>
<path d="M1983 2245 c2 -38 4 -40 35 -41 31 -1 32 0 31 40 -1 42 -3 41 -13 -7
-9 -40 -39 -32 -48 13 l-6 35 1 -40z"/>
<path d="M2080 2240 c0 -22 2 -40 4 -40 2 0 6 18 8 40 2 22 0 40 -4 40 -5 0
-8 -18 -8 -40z"/>
<path d="M2230 2240 c0 -22 2 -40 4 -40 2 0 6 18 8 40 2 22 0 40 -4 40 -5 0
-8 -18 -8 -40z"/>
<path d="M2281 2255 c-1 -41 10 -55 42 -53 25 2 27 6 26 43 l-2 40 -6 -35 c-4
-26 -11 -35 -26 -35 -15 0 -22 9 -26 35 -6 34 -6 34 -8 5z"/>
<path d="M2381 2268 c0 -10 8 -22 19 -28 27 -14 26 -34 -1 -27 -16 4 -19 3
-11 -5 14 -14 42 -3 42 16 0 8 -9 17 -19 21 -11 3 -22 14 -24 23 -4 16 -5 16
-6 0z"/>
<path d="M2415 2270 c3 -5 8 -10 11 -10 2 0 4 5 4 10 0 6 -5 10 -11 10 -5 0
-7 -4 -4 -10z"/>
<path d="M2514 2266 c-16 -41 20 -86 47 -59 6 6 1 9 -12 9 -12 -1 -24 5 -26
12 -3 8 6 12 26 12 31 0 43 21 21 35 -6 3 -7 -1 -4 -9 5 -12 -1 -16 -21 -16
-20 0 -26 4 -21 15 3 8 3 15 0 15 -2 0 -7 -6 -10 -14z"/>
<path d="M2741 2274 c-2 -18 20 -74 29 -74 10 0 22 31 15 38 -3 3 -5 0 -5 -6
0 -24 -17 -11 -28 21 -5 17 -10 27 -11 21z"/>
<path d="M2795 2269 c-4 -6 -5 -12 -2 -15 2 -3 7 2 10 11 7 17 1 20 -8 4z"/>
<path d="M2832 2263 c-13 -25 3 -63 27 -63 11 0 22 4 25 9 3 4 -6 6 -19 3 -18
-3 -25 0 -25 12 0 11 9 16 31 16 24 0 30 3 25 16 -3 9 -6 18 -6 20 0 2 -5 4
-11 4 -8 0 -8 -5 1 -15 11 -13 8 -15 -15 -15 -20 0 -26 4 -21 15 8 21 -1 19
-12 -2z"/>
<path d="M2980 2237 c4 -41 5 -41 8 -8 2 18 0 37 -5 42 -5 5 -6 -11 -3 -34z"/>
<path d="M3023 2240 c0 -25 2 -35 4 -22 2 12 2 32 0 45 -2 12 -4 2 -4 -23z"/>
<path d="M3062 2263 c-13 -25 3 -63 27 -63 11 0 22 4 25 9 3 4 -6 6 -21 3 -24
-5 -25 -3 -21 32 5 40 3 44 -10 19z"/>
<path d="M3105 2270 c3 -5 8 -10 11 -10 2 0 4 5 4 10 0 6 -5 10 -11 10 -5 0
-7 -4 -4 -10z"/>
<path d="M3194 2266 c-16 -41 20 -86 47 -59 6 6 1 9 -12 9 -12 -1 -24 5 -26
12 -3 8 6 12 26 12 31 0 43 21 21 35 -6 3 -7 -1 -4 -9 5 -12 -1 -16 -21 -16
-20 0 -26 4 -21 15 3 8 3 15 0 15 -2 0 -7 -6 -10 -14z"/>
<path d="M3321 2223 c1 -32 4 -49 6 -37 3 16 10 20 27 17 12 -3 28 2 35 11 15
18 11 58 -7 64 -11 3 -11 0 -1 -16 15 -25 5 -52 -20 -52 -24 0 -34 25 -21 51
8 15 7 19 -5 19 -12 0 -15 -12 -14 -57z"/>
<path d="M3430 2269 c0 -5 5 -7 10 -4 6 3 10 8 10 11 0 2 -4 4 -10 4 -5 0 -10
-5 -10 -11z"/>
<path d="M3466 2266 c3 -9 -4 -16 -21 -20 -28 -7 -32 -40 -5 -42 10 -1 11 1 2
3 -17 6 -10 27 11 31 10 2 17 -5 20 -20 2 -13 5 -5 6 20 0 23 -3 42 -9 42 -5
0 -7 -6 -4 -14z"/>
<path d="M3511 2238 c2 -35 3 -37 6 -13 3 17 9 36 15 43 8 9 6 12 -6 12 -12 0
-16 -9 -15 -42z"/>
<path d="M3663 2240 c0 -25 2 -35 4 -22 2 12 2 32 0 45 -2 12 -4 2 -4 -23z"/>
<path d="M3700 2240 c0 -22 2 -40 4 -40 2 0 6 18 8 40 2 22 0 40 -4 40 -5 0
-8 -18 -8 -40z"/>
<path d="M3757 2243 c8 -50 13 -55 13 -10 0 20 -4 38 -9 42 -6 3 -7 -10 -4
-32z"/>
<path d="M3794 2255 c-8 -33 13 -58 43 -52 15 3 22 0 20 -7 -2 -6 -16 -11 -30
-11 -14 1 -23 -3 -21 -7 8 -12 38 -10 52 4 18 18 16 98 -3 98 -12 0 -13 -4 -4
-19 16 -24 5 -51 -20 -51 -24 0 -37 35 -21 55 9 10 9 15 1 15 -6 0 -13 -11
-17 -25z"/>
<path d="M3937 2273 c-5 -7 2 -18 18 -29 33 -22 32 -38 -2 -29 -21 5 -25 4
-17 -5 7 -7 20 -10 30 -8 26 5 30 35 5 43 -11 3 -21 14 -23 23 -2 12 -6 13
-11 5z"/>
<path d="M4011 2279 c-1 -4 5 -25 13 -47 11 -29 11 -43 3 -51 -8 -8 -8 -11 1
-11 7 0 12 1 12 3 0 1 9 26 20 55 11 30 16 51 11 48 -5 -4 -13 -21 -17 -39
l-7 -32 -18 40 c-10 22 -18 37 -18 34z"/>
<path d="M4101 2268 c0 -10 8 -22 19 -28 27 -14 26 -34 -1 -27 -16 4 -19 3
-11 -5 14 -14 42 -3 42 16 0 8 -9 17 -19 21 -11 3 -22 14 -24 23 -4 16 -5 16
-6 0z"/>
<path d="M4135 2270 c3 -5 8 -10 11 -10 2 0 4 5 4 10 0 6 -5 10 -11 10 -5 0
-7 -4 -4 -10z"/>
<path d="M4234 2266 c-16 -42 20 -86 48 -58 6 6 0 8 -16 5 -19 -4 -26 -1 -26
11 0 11 9 16 31 16 24 0 30 3 25 16 -3 9 -6 18 -6 20 0 2 -5 4 -11 4 -8 0 -8
-5 1 -15 11 -13 8 -15 -15 -15 -20 0 -26 4 -21 15 3 8 3 15 0 15 -2 0 -7 -6
-10 -14z"/>
<path d="M4321 2238 c2 -35 3 -37 6 -13 3 17 9 36 15 43 8 9 6 12 -6 12 -12 0
-16 -9 -15 -42z"/>
<path d="M4369 2237 c5 -37 6 -39 9 -12 2 17 8 35 12 40 6 7 2 11 -8 12 -15 1
-17 -5 -13 -40z"/>
<path d="M4418 2240 c2 -22 6 -40 8 -40 2 0 4 18 4 40 0 22 -3 40 -8 40 -4 0
-6 -18 -4 -40z"/>
<path d="M1030 2202 c0 -27 19 -41 255 -192 218 -138 262 -163 296 -164 33 -1
46 5 65 27 22 26 24 36 24 143 l0 114 -37 1 c-103 4 -113 9 -113 59 l0 40
-245 0 -245 0 0 -28z"/>
</g>
</svg>
