<?xml version="1.0" standalone="no"?>
<!DOCTYPE svg PUBLIC "-//W3C//DTD SVG 20010904//EN"
 "http://www.w3.org/TR/2001/REC-SVG-20010904/DTD/svg10.dtd">
<svg version="1.0" xmlns="http://www.w3.org/2000/svg"
 width="500.000000pt" height="254.000000pt" viewBox="0 0 500.000000 254.000000"
 preserveAspectRatio="xMidYMid meet">

<g transform="translate(0.000000,254.000000) scale(0.100000,-0.100000)"
fill="#000000" stroke="none">
<path d="M2841 2000 c18 -25 38 -48 44 -52 12 -9 16 -50 4 -42 -4 2 -6 10 -3
18 3 7 -2 13 -11 13 -8 0 -15 -6 -15 -13 0 -9 -6 -11 -17 -7 -16 6 -17 5 -4
-13 14 -18 14 -18 -5 -1 -15 14 -16 19 -5 26 9 6 10 11 2 15 -6 4 -11 2 -11
-3 0 -18 -13 -12 -47 19 -65 61 -43 28 31 -48 187 -191 345 -480 372 -681 l6
-49 -42 -27 c-101 -64 -238 -112 -395 -140 -107 -19 -338 -22 -451 -5 -156 23
-327 79 -440 145 l-46 27 7 46 c29 195 177 476 343 654 25 27 42 48 39 48 -4
0 -27 -21 -51 -47 -56 -58 -85 -65 -77 -19 1 5 -4 4 -13 -3 -8 -7 -17 -8 -20
-3 -3 5 24 45 61 88 49 58 55 68 24 39 -96 -90 -226 -277 -311 -445 -56 -110
-110 -279 -117 -362 l-6 -66 79 -40 c114 -57 252 -106 389 -138 112 -26 135
-28 335 -28 187 -1 229 2 320 22 136 30 292 82 408 137 108 51 105 43 67 190
-72 276 -227 548 -416 730 -60 57 -61 58 -28 15z m-806 -160 c3 -5 1 -10 -4
-10 -6 0 -11 5 -11 10 0 6 2 10 4 10 3 0 8 -4 11 -10z m29 -33 c-9 -24 -23
-11 -17 14 3 12 9 17 15 11 5 -5 6 -16 2 -25z"/>
<path d="M2219 1953 c-13 -16 -12 -17 4 -4 9 7 17 15 17 17 0 8 -8 3 -21 -13z"/>
<path d="M2304 1901 c-53 -38 -136 -128 -174 -187 -46 -74 -42 -107 23 -167
28 -27 88 -75 132 -106 79 -56 80 -58 83 -104 4 -68 -14 -126 -42 -133 -35 -8
-143 14 -209 44 -73 32 -84 54 -57 116 11 24 17 51 14 60 -10 27 -40 38 -68
25 -31 -14 -68 -103 -70 -166 -2 -76 71 -126 242 -163 166 -37 237 -23 266 51
23 56 32 186 17 232 -13 40 -73 95 -178 166 -68 45 -74 60 -47 113 21 40 93
118 110 118 8 0 15 -18 20 -45 9 -61 52 -85 88 -49 31 31 11 146 -34 194 -35
38 -66 38 -116 1z"/>
<path d="M2561 1901 c-29 -29 -35 -94 -28 -306 6 -199 29 -396 52 -451 11 -26
22 -35 57 -45 37 -10 53 -8 118 10 101 30 273 113 294 142 47 68 -16 177 -149
254 l-47 28 31 24 c18 14 31 34 31 47 0 34 -51 106 -137 197 -108 113 -178
144 -222 100z m154 -153 c20 -24 48 -62 62 -86 24 -41 24 -43 8 -68 -20 -32
-98 -68 -126 -59 -11 4 -24 18 -30 32 -13 36 -11 197 3 211 22 22 46 13 83
-30z m130 -309 c59 -28 107 -83 103 -117 -2 -22 -15 -33 -67 -59 -75 -37 -152
-58 -185 -49 -20 5 -26 16 -35 56 -12 57 -14 120 -5 145 17 44 118 57 189 24z"/>
<path d="M244 776 c-41 -18 -64 -52 -64 -95 0 -30 10 -44 65 -98 64 -62 76
-88 53 -111 -15 -15 -74 -16 -83 -2 -11 18 -24 11 -40 -20 l-16 -31 35 -14
c41 -17 113 -20 151 -5 47 18 75 58 75 107 0 42 -5 50 -66 114 -79 81 -81 105
-10 97 39 -5 45 -3 55 19 15 32 16 31 -26 42 -50 14 -91 13 -129 -3z"/>
<path d="M571 720 c-107 -26 -158 -135 -109 -230 31 -60 89 -90 174 -90 68 0
76 5 67 38 -5 19 -12 22 -55 22 -64 0 -108 38 -108 94 0 73 35 109 107 108 37
-1 45 2 52 21 5 12 6 25 2 29 -11 12 -93 18 -130 8z"/>
<path d="M2971 720 c-107 -26 -158 -135 -109 -230 31 -60 89 -90 174 -90 66 0
79 8 69 40 -5 16 -15 20 -56 20 -42 0 -55 5 -80 29 -40 41 -41 98 -1 142 24
27 35 31 75 31 41 -1 49 2 59 23 6 14 9 27 7 29 -10 10 -106 14 -138 6z"/>
<path d="M740 560 l0 -160 45 0 45 0 0 75 0 75 55 0 55 0 0 -75 0 -75 45 0 45
0 0 160 0 160 -45 0 -45 0 0 -55 0 -55 -55 0 -55 0 0 55 0 55 -45 0 -45 0 0
-160z"/>
<path d="M1070 560 l0 -160 105 0 105 0 0 30 0 30 -60 0 -60 0 0 40 0 40 50 0
c49 0 50 1 50 30 0 29 -1 30 -51 30 l-50 0 3 33 c3 31 5 32 51 35 42 3 47 5
47 28 0 24 -1 24 -95 24 l-95 0 0 -160z"/>
<path d="M1310 560 l0 -160 45 0 45 0 0 160 0 160 -45 0 -45 0 0 -160z"/>
<path d="M1440 560 l0 -160 83 0 c137 0 207 49 214 152 9 115 -58 168 -209
168 l-88 0 0 -160z m169 84 c27 -23 31 -32 31 -79 0 -68 -26 -105 -76 -105
l-34 0 0 98 c0 54 3 102 7 105 13 14 42 6 72 -19z"/>
<path d="M1748 695 c-5 -24 -3 -25 43 -25 l49 0 0 -135 0 -135 45 0 44 0 3
133 3 132 48 3 c42 3 47 5 47 28 l0 24 -139 0 -139 0 -4 -25z"/>
<path d="M2260 560 l0 -160 88 0 c100 0 149 18 171 64 17 36 3 70 -39 94 -36
20 -37 24 -7 37 17 8 23 20 25 52 3 38 0 43 -27 57 -21 11 -58 16 -121 16
l-90 0 0 -160z m158 80 c4 -26 -20 -50 -50 -50 -14 0 -18 8 -18 38 0 47 4 52
38 43 18 -5 28 -15 30 -31z m4 -114 c22 -32 -6 -76 -48 -76 -22 0 -24 4 -24
43 0 24 3 47 6 50 9 9 57 -4 66 -17z"/>
<path d="M2650 717 c0 -2 -29 -74 -65 -160 l-64 -157 37 0 c34 0 39 4 54 40
16 39 18 40 67 40 50 0 50 0 62 -40 12 -40 13 -40 61 -40 26 0 48 3 48 7 0 4
-26 76 -57 160 l-58 153 -42 0 c-24 0 -43 -2 -43 -3z m48 -128 c7 -28 12 -55
12 -60 0 -9 -53 -13 -62 -4 -6 7 25 115 33 115 3 0 11 -23 17 -51z"/>
<path d="M3140 560 l0 -160 45 0 45 0 0 75 0 75 55 0 55 0 0 -75 0 -75 45 0
45 0 0 160 0 160 -45 0 -45 0 0 -55 0 -55 -55 0 -55 0 0 55 0 55 -45 0 -45 0
0 -160z"/>
<path d="M3470 560 l0 -160 35 0 35 0 0 112 c0 61 3 108 8 104 4 -4 23 -53 42
-109 34 -98 36 -102 66 -105 31 -3 31 -3 65 100 18 57 37 107 41 112 5 6 8
-40 8 -102 l0 -112 45 0 45 0 0 160 0 160 -63 0 -64 0 -29 -95 c-16 -52 -31
-95 -34 -95 -3 0 -19 42 -36 93 l-30 92 -67 3 -67 3 0 -161z"/>
<path d="M3948 577 c-31 -78 -60 -150 -63 -159 -6 -15 -1 -18 28 -18 31 0 36
4 51 40 16 39 17 40 67 40 50 0 51 -1 66 -40 16 -39 17 -40 64 -40 l48 0 -28
78 c-16 42 -43 114 -61 160 l-32 82 -41 0 -42 0 -57 -143z m107 5 c7 -28 10
-53 7 -56 -11 -12 -62 -6 -62 7 0 20 32 109 37 104 2 -3 10 -28 18 -55z"/>
<path d="M4230 560 l0 -160 41 0 40 0 -3 90 c-2 50 -1 90 2 90 3 0 36 -41 75
-90 62 -81 73 -90 102 -90 l33 0 0 160 0 160 -35 0 -35 0 0 -90 c0 -49 -3 -90
-7 -90 -5 0 -15 13 -25 29 -9 16 -38 57 -65 90 -43 55 -52 61 -85 61 l-38 0 0
-160z"/>
<path d="M4560 561 l0 -161 35 0 35 0 1 98 c0 94 1 96 17 72 9 -13 43 -57 75
-97 48 -61 62 -73 87 -73 l30 0 0 160 0 160 -35 0 -34 0 -3 -89 -3 -89 -65 86
c-60 79 -69 87 -103 90 l-37 3 0 -160z"/>
<path d="M2014 616 c-15 -24 -15 -28 -1 -50 15 -22 15 -25 -3 -41 -26 -24 -26
-79 0 -105 23 -23 84 -27 124 -9 19 9 29 9 40 0 11 -10 19 -9 35 1 20 12 20
13 1 33 -15 16 -18 29 -13 63 3 26 11 42 19 42 8 0 14 7 14 15 0 21 -95 21
-103 1 -3 -8 2 -16 14 -19 18 -5 28 -47 11 -47 -12 0 -82 74 -82 87 0 6 10 13
23 15 40 6 26 33 -20 36 -36 3 -44 -1 -59 -22z m106 -168 c0 -4 -13 -8 -30 -8
-23 0 -31 5 -36 24 -10 42 5 50 37 20 16 -15 29 -31 29 -36z"/>
</g>
</svg>
