<svg version="1.1" id="Layer_1" xmlns="http://www.w3.org/2000/svg" xmlns:xlink="http://www.w3.org/1999/xlink" x="0px" y="0px"
	 width="100%" viewBox="0 0 1024 1024" enable-background="new 0 0 1024 1024" xml:space="preserve">
<path fill="none" opacity="1.000000" stroke="none" 
	d="
M445.000000,1025.000000 
	C296.666656,1025.000000 148.833328,1025.000000 1.000000,1025.000000 
	C1.000000,683.666687 1.000000,342.333344 1.000000,1.000000 
	C342.333344,1.000000 683.666687,1.000000 1025.000000,1.000000 
	C1025.000000,342.333344 1025.000000,683.666687 1025.000000,1025.000000 
	C831.833313,1025.000000 638.666687,1025.000000 445.000000,1025.000000 
M755.500000,504.128662 
	C774.331055,504.095459 793.184692,504.601257 811.984253,503.815063 
	C822.294617,503.383881 830.701050,505.375641 837.855530,513.124756 
	C841.775879,517.370850 846.710022,520.686584 851.230774,524.368103 
	C852.158691,525.123718 853.281616,525.639832 854.720581,526.512573 
	C854.720581,462.971405 854.720581,400.112854 854.720581,336.159027 
	C852.577881,337.743622 851.125305,338.698608 849.808655,339.814026 
	C845.868958,343.151428 841.850952,346.412994 838.108459,349.962372 
	C833.409058,354.419159 828.226868,356.196777 821.544861,356.189758 
	C618.902344,355.977142 416.259247,355.818909 213.617676,356.274261 
	C200.252808,356.304260 189.821609,353.479736 180.816483,343.979309 
	C177.840469,340.839600 174.164948,338.362915 170.439316,335.276642 
	C170.439316,399.921234 170.439316,463.557281 170.439316,528.314758 
	C178.673080,521.035034 186.140060,514.674316 193.302124,507.986969 
	C196.329224,505.160583 199.435242,504.101868 203.565521,504.103546 
	C387.210327,504.177826 570.855164,504.147858 755.500000,504.128662 
M313.500000,628.205444 
	C278.171814,628.161560 242.843567,628.087708 207.515717,628.174438 
	C205.971786,628.178284 204.431458,629.654663 202.889435,630.445068 
	C203.898239,631.951294 204.589706,633.945557 205.987106,634.854004 
	C208.325043,636.374023 211.192764,637.048645 213.696152,638.350830 
	C219.143677,641.184448 221.786438,645.837830 220.731339,650.327637 
	C219.698441,654.722839 216.053909,656.807434 209.190338,656.925964 
	C208.523911,656.937439 207.857254,656.939514 207.190704,656.939514 
	C173.529114,656.938354 139.867523,656.939514 106.205933,656.928772 
	C103.707268,656.927979 101.194237,656.994446 98.713280,656.760498 
	C94.807777,656.391968 91.583549,654.803833 90.420692,650.695374 
	C89.280945,646.668701 90.881973,643.368835 94.016327,641.039551 
	C96.935326,638.870483 100.372314,637.401855 103.312851,635.256897 
	C104.809547,634.165161 105.716057,632.264343 106.889374,630.729248 
	C105.173241,630.134338 103.471260,629.079773 101.738449,629.026306 
	C95.245834,628.826416 88.666916,628.351746 82.269951,629.161560 
	C77.699356,629.740295 72.801529,631.392212 69.046600,634.000427 
	C61.043083,639.559814 58.158993,651.078308 61.392139,660.480652 
	C64.781670,670.337708 71.529716,674.959595 82.734787,675.058899 
	C88.400246,675.109131 94.066116,675.132019 99.731804,675.131348 
	C364.691742,675.100037 629.651672,675.064880 894.611572,675.029907 
	C911.608826,675.027710 928.608337,675.192017 945.602539,674.962158 
	C956.809875,674.810669 965.631897,665.769531 966.170105,654.544434 
	C966.818542,641.019531 959.198669,630.114868 947.571472,629.127502 
	C939.149414,628.412292 930.625061,628.832214 922.148254,628.924805 
	C921.110596,628.936096 919.345215,629.948914 919.237427,630.689819 
	C919.096130,631.660217 920.006104,633.216125 920.924805,633.826294 
	C923.552551,635.571655 926.602295,636.710815 929.125000,638.576538 
	C931.321350,640.200867 933.702881,642.174927 934.808105,644.550232 
	C937.154114,649.592041 934.199524,656.990967 924.668274,656.930908 
	C888.675476,656.704102 852.680298,656.874023 816.685974,656.848999 
	C814.706970,656.847656 812.685181,656.612427 810.757629,656.165466 
	C805.386658,654.920044 803.161194,650.810730 804.908630,645.575073 
	C806.733276,640.107971 811.261780,637.812378 816.153137,635.755310 
	C818.663086,634.699707 823.512085,636.056824 822.669434,630.884521 
	C821.852173,625.867737 817.555786,628.165466 814.922913,628.164368 
	C648.115295,628.094116 481.307648,628.156067 313.500000,628.205444 
M867.317993,580.365112 
	C862.990845,576.882751 858.663696,573.400391 853.195679,568.999817 
	C853.195679,584.561340 853.195679,598.573792 853.195679,613.042175 
	C847.798218,613.042175 843.027588,613.042175 837.896179,613.042175 
	C837.896179,616.574463 837.896179,619.645264 837.896179,622.932129 
	C859.541382,622.932129 881.087463,622.932129 902.994507,622.932129 
	C902.994507,619.872925 902.994507,617.113708 902.994507,613.779846 
	C898.065063,613.779846 893.150146,613.779846 887.305298,613.779846 
	C887.305298,598.247803 887.305298,583.265991 887.305298,566.925781 
	C884.468201,568.953186 882.907715,570.068420 881.347107,571.183533 
	C876.867126,574.384460 872.387146,577.585388 867.317993,580.365112 
M155.575043,623.222839 
	C163.901154,623.195923 172.227371,623.185120 180.553360,623.137390 
	C188.447876,623.092163 188.880264,622.515198 187.150833,613.795898 
	C182.398163,613.795898 177.495346,613.795898 172.026703,613.795898 
	C172.026703,598.815002 172.026703,584.461182 172.026703,568.759949 
	C166.433716,573.526306 161.842865,577.438660 157.314987,581.297302 
	C150.828201,576.493774 144.578552,571.865906 138.328918,567.237976 
	C137.911682,567.632446 137.494446,568.026917 137.077209,568.421387 
	C137.077209,583.366699 137.077209,598.311951 137.077209,613.763794 
	C131.903183,613.763794 127.156975,613.763794 122.337013,613.763794 
	C122.337013,617.176270 122.337013,620.070862 122.337013,623.223633 
	C133.320480,623.223633 143.960648,623.223633 155.575043,623.222839 
M882.054626,332.255646 
	C883.792725,327.447021 885.508362,322.630127 887.279602,317.833710 
	C888.027222,315.809448 889.110291,313.887146 889.666626,311.817902 
	C892.209961,302.357758 888.865295,293.899323 881.382629,290.511169 
	C874.108643,287.217438 865.238159,289.603394 860.615234,296.503723 
	C856.014465,303.371002 856.750793,310.696075 861.052734,317.177917 
	C865.177490,323.393005 866.360840,329.886810 865.952209,337.032867 
	C865.762268,340.354614 865.919739,343.696228 865.919739,347.028839 
	C866.474670,347.255554 867.029602,347.482269 867.584534,347.708984 
	C872.263062,342.761353 876.941650,337.813721 882.054626,332.255646 
M165.521683,297.141602 
	C159.900131,290.142883 152.175873,287.548157 145.430313,290.392548 
	C138.285706,293.405151 134.549683,300.228699 135.877899,309.300171 
	C136.439896,313.138489 138.411972,316.765625 139.699448,320.503754 
	C141.142242,324.692871 141.539612,329.720917 144.174088,332.913147 
	C148.588196,338.261780 154.414795,342.444763 160.170502,347.585938 
	C160.170502,341.974487 160.324265,337.006165 160.125656,332.051971 
	C159.940567,327.434631 160.916809,323.502319 163.586182,319.481445 
	C167.969543,312.878784 169.843597,305.527252 165.521683,297.141602 
M142.074127,464.472504 
	C142.372009,468.561401 141.168457,473.831909 143.269577,476.501648 
	C148.164322,482.721069 154.649857,487.688507 161.186172,493.814880 
	C161.186172,477.516144 161.192657,462.236237 161.168167,446.956360 
	C161.166870,446.142944 161.196213,445.036285 160.718750,444.561554 
	C155.045349,438.920837 149.278320,433.374329 143.535858,427.803101 
	C143.048630,428.109467 142.561386,428.415833 142.074142,428.722198 
	C142.074142,440.308380 142.074142,451.894531 142.074127,464.472504 
M864.515930,403.497009 
	C864.515930,409.082581 864.515930,414.668152 864.515930,421.873749 
	C870.268921,416.186096 875.138306,411.765411 879.483093,406.878418 
	C881.166809,404.984619 882.493591,402.058350 882.562012,399.563477 
	C882.917786,386.595856 882.836304,373.615631 882.846191,360.639740 
	C882.847534,358.954498 882.496887,357.268951 882.171570,354.346344 
	C876.587158,359.473541 871.775757,363.542908 867.435120,368.064178 
	C865.905273,369.657654 864.823669,372.332031 864.745544,374.555298 
	C864.418701,383.860840 864.550476,393.182495 864.515930,403.497009 
M153.944778,364.545746 
	C150.565125,361.347198 147.185455,358.148682 143.068390,354.252228 
	C142.590012,356.545929 142.292557,357.313385 142.290024,358.081848 
	C142.242050,372.564056 142.209976,387.046448 142.246445,401.528595 
	C142.249237,402.631073 142.437500,404.088867 143.135498,404.777374 
	C148.634827,410.202118 154.279251,415.479797 159.879013,420.802765 
	C161.059097,418.304291 161.056259,416.389984 161.059555,414.475647 
	C161.078186,403.655151 160.684326,392.812347 161.265411,382.022064 
	C161.644104,374.989838 160.182785,369.323029 153.944778,364.545746 
M873.954651,434.474701 
	C872.506348,435.844635 871.213379,437.446411 869.580322,438.540527 
	C864.913635,441.667206 863.812622,445.946014 863.974854,451.366150 
	C864.337463,463.486084 864.111389,475.623383 864.152405,487.753510 
	C864.158142,489.451355 864.317810,491.148651 864.488403,494.423920 
	C870.106934,488.669006 874.881226,484.287048 878.987305,479.349396 
	C880.912109,477.034790 882.511414,473.678192 882.602417,470.742523 
	C883.013855,457.461121 882.842163,444.161377 882.850769,430.868256 
	C882.851440,429.821960 882.624573,428.775543 882.400085,426.836456 
	C879.322205,429.605621 876.890930,431.793091 873.954651,434.474701 
M161.091492,561.077087 
	C161.082062,547.286316 161.109573,533.495239 161.016876,519.705017 
	C161.005173,517.961914 160.953903,515.644287 159.912323,514.579895 
	C154.730026,509.284485 149.210129,504.319458 143.256714,498.718414 
	C142.841095,500.484680 142.513901,501.241760 142.506134,502.002106 
	C142.365372,515.790771 142.255615,529.579773 142.171646,543.368896 
	C142.166763,544.169189 142.155182,545.239624 142.622986,545.731445 
	C148.228745,551.625244 153.923431,557.434570 159.656754,563.204529 
	C159.674057,563.221985 160.597061,562.339417 161.091492,561.077087 
M865.462219,514.278320 
	C865.182861,515.726074 864.668884,517.172424 864.660522,518.621704 
	C864.578796,532.779114 864.575378,546.936951 864.582642,561.094666 
	C864.582947,561.663147 864.911011,562.231506 865.292664,563.468933 
	C870.947571,557.538574 876.309509,552.115295 881.380981,546.432861 
	C882.429504,545.257874 882.787048,543.122009 882.801636,541.423279 
	C882.909058,528.931885 882.871216,516.438904 882.810852,503.946777 
	C882.803772,502.473145 882.383484,501.001495 881.972290,498.353302 
	C876.004028,504.085754 870.990234,508.901550 865.462219,514.278320 
z"/>
<path fill="#FBFBFB" opacity="1.000000" stroke="none" 
	d="
M755.000000,504.129456 
	C570.855164,504.147858 387.210327,504.177826 203.565521,504.103546 
	C199.435242,504.101868 196.329224,505.160583 193.302124,507.986969 
	C186.140060,514.674316 178.673080,521.035034 170.439316,528.314758 
	C170.439316,463.557281 170.439316,399.921234 170.439316,335.276642 
	C174.164948,338.362915 177.840469,340.839600 180.816483,343.979309 
	C189.821609,353.479736 200.252808,356.304260 213.617676,356.274261 
	C416.259247,355.818909 618.902344,355.977142 821.544861,356.189758 
	C828.226868,356.196777 833.409058,354.419159 838.108459,349.962372 
	C841.850952,346.412994 845.868958,343.151428 849.808655,339.814026 
	C851.125305,338.698608 852.577881,337.743622 854.720581,336.159027 
	C854.720581,400.112854 854.720581,462.971405 854.720581,526.512573 
	C853.281616,525.639832 852.158691,525.123718 851.230774,524.368103 
	C846.710022,520.686584 841.775879,517.370850 837.855530,513.124756 
	C830.701050,505.375641 822.294617,503.383881 811.984253,503.815063 
	C793.184692,504.601257 774.331055,504.095459 755.000000,504.129456 
M212.727646,468.961456 
	C228.048279,472.853821 242.190582,471.248230 253.982498,459.695160 
	C263.985962,449.894257 265.865417,437.650574 264.481018,424.305908 
	C250.800049,424.305908 237.569595,424.305908 223.841446,424.305908 
	C223.841446,427.939453 224.166702,431.277863 223.766846,434.527039 
	C223.132385,439.682800 225.735382,440.935516 230.140854,440.805389 
	C234.177994,440.686096 238.221451,440.780060 242.653305,440.780060 
	C235.729797,453.798431 221.271454,455.789337 212.714737,445.393433 
	C206.669907,438.049286 205.723328,429.532410 209.660858,421.005951 
	C215.473068,408.420074 229.839996,406.643341 239.141968,416.945068 
	C240.019623,417.917023 241.474319,418.913910 242.687180,418.947113 
	C249.632141,419.137329 256.584961,419.039551 264.130829,419.039551 
	C262.493286,411.836426 259.391937,406.559448 254.497589,402.280823 
	C241.072357,390.544647 215.207977,389.170746 200.732819,399.631866 
	C188.448410,408.509827 182.975754,420.713440 185.163376,435.679413 
	C187.516602,451.778137 196.367630,463.118683 212.727646,468.961456 
M342.511047,469.403839 
	C344.914703,469.403839 347.318329,469.403839 350.150482,469.403839 
	C341.416992,444.632904 333.006195,420.625000 324.369232,396.698730 
	C323.904633,395.411713 321.573578,394.083618 320.055817,394.015656 
	C313.571136,393.725342 307.056274,394.112213 300.571289,393.825653 
	C296.847961,393.661072 295.092834,394.771667 293.799744,398.470734 
	C286.659271,418.896454 279.177490,439.202820 271.817719,459.551941 
	C270.706818,462.623474 269.622192,465.704498 268.291473,469.437408 
	C276.068268,469.437408 283.167114,469.583527 290.247345,469.285583 
	C291.355042,469.238983 292.709961,467.337128 293.367950,466.005341 
	C294.592010,463.527924 294.675964,459.706299 296.545715,458.532104 
	C298.742462,457.152527 302.333740,457.954224 305.321960,457.885071 
	C308.486389,457.811829 311.694061,458.140625 314.808960,457.731445 
	C319.770905,457.079651 322.714539,458.496613 323.273346,463.865997 
	C323.717743,468.135742 325.934540,470.137787 330.628082,469.475616 
	C334.220581,468.968750 337.944489,469.393188 342.511047,469.403839 
M442.499908,469.249146 
	C451.776947,469.249146 461.054016,469.249146 470.585724,469.249146 
	C470.585724,463.284058 470.585724,457.901855 470.585724,451.989868 
	C459.877930,451.989868 449.470337,451.989868 438.896301,451.989868 
	C438.896301,447.729980 438.896301,444.003113 438.896301,439.586670 
	C446.937775,439.586670 454.675049,439.586670 462.413055,439.586670 
	C462.413055,433.333191 462.413055,427.783417 462.413055,421.679443 
	C454.254974,421.679443 446.521332,421.679443 438.627380,421.679443 
	C438.627380,417.850647 438.627380,414.590546 438.627380,410.773743 
	C449.118561,410.773743 459.357178,410.773743 469.769318,410.773743 
	C469.769318,404.825714 469.769318,399.439148 469.769318,393.996948 
	C452.053802,393.996948 434.657623,393.996948 417.201843,393.996948 
	C417.201843,419.190643 417.201843,444.059479 417.201843,469.250702 
	C425.559296,469.250702 433.529572,469.250702 442.499908,469.249146 
M823.606018,395.995758 
	C818.687073,415.818665 813.768066,435.641602 808.849121,455.464508 
	C808.362244,455.530151 807.875427,455.595795 807.388611,455.661438 
	C802.519104,435.358002 797.649597,415.054596 792.781555,394.757172 
	C787.855652,393.412964 785.253357,394.440002 783.895874,399.980835 
	C779.360352,418.493927 774.191528,436.851868 769.121338,455.807281 
	C768.369019,453.117950 767.630005,450.784454 767.065735,448.409424 
	C763.101196,431.722260 759.120850,415.038330 755.285645,398.321259 
	C754.676025,395.664032 753.787476,394.311951 750.759583,394.293732 
	C747.860901,394.276337 746.673889,395.306274 745.986816,398.039856 
	C743.065308,409.664215 739.969666,421.245148 736.893677,432.830231 
	C734.961731,440.106628 732.951599,447.362274 730.976562,454.627228 
	C730.251770,454.628052 729.526917,454.628876 728.802124,454.629700 
	C724.759644,434.733978 720.717163,414.838226 716.638977,394.766937 
	C713.865479,394.766937 711.118164,394.766937 707.903625,394.766937 
	C713.971497,419.463989 719.954468,443.815704 725.934082,468.153687 
	C728.996521,468.153687 731.419617,468.153687 733.939148,468.153687 
	C739.101807,447.978271 744.200439,428.053284 749.299072,408.128326 
	C749.755798,408.174500 750.212585,408.220703 750.669312,408.266907 
	C755.565857,428.258575 760.462402,448.250275 765.391296,468.373962 
	C767.853455,468.373962 770.235046,468.373962 772.384888,468.373962 
	C777.643738,448.333130 782.791138,428.717041 787.938538,409.100983 
	C788.339844,409.148407 788.741089,409.195831 789.142395,409.243256 
	C794.223328,428.853363 799.304260,448.463470 804.428406,468.240540 
	C807.137146,468.240540 809.765747,468.240540 812.740112,468.240540 
	C819.115723,443.616333 825.463745,419.098663 832.180847,393.155457 
	C828.337952,394.099182 826.087585,394.651825 823.606018,395.995758 
M548.141418,422.821838 
	C541.060852,422.821838 533.980286,422.821838 526.970520,422.821838 
	C526.970520,418.233826 526.970520,414.700012 526.970520,410.632080 
	C536.841797,410.632080 546.239746,410.632080 555.632996,410.632080 
	C555.632996,404.668518 555.632996,399.258118 555.632996,393.982208 
	C538.573975,393.982208 521.847778,393.982208 505.106323,393.982208 
	C505.106323,419.249939 505.106323,444.004486 505.106323,469.019104 
	C512.174316,469.019104 518.901367,469.019104 526.246338,469.019104 
	C526.246338,459.387695 526.246338,449.993927 526.246338,439.995728 
	C534.243713,439.995728 541.635803,439.995728 549.801086,439.995728 
	C549.521973,433.948395 549.272644,428.545105 548.141418,422.821838 
M367.500061,393.717041 
	C360.053986,393.717041 352.607880,393.717041 345.033875,393.717041 
	C345.033875,399.706970 345.033875,405.104004 345.033875,411.009705 
	C351.590515,411.009705 357.832397,411.009705 364.699463,411.009705 
	C364.699463,430.739258 364.699463,449.963318 364.699463,469.212524 
	C372.449890,469.212524 379.544617,469.212524 387.228851,469.212524 
	C387.228851,449.647064 387.228851,430.411133 387.228851,410.804504 
	C394.761108,410.804504 401.703094,410.804504 408.812683,410.804504 
	C408.812683,404.896057 408.812683,399.377472 408.812683,393.713470 
	C395.120544,393.713470 381.810333,393.713470 367.500061,393.717041 
M586.067932,424.500000 
	C586.067932,414.414581 586.067932,404.329163 586.067932,394.205566 
	C578.748291,394.205566 571.872559,394.205566 564.794250,394.205566 
	C564.794250,406.901337 564.794250,419.214050 564.794250,431.526794 
	C564.794250,443.961914 564.794250,456.397034 564.794250,469.015991 
	C582.266907,469.015991 599.169922,469.015991 616.376709,469.015991 
	C616.376709,463.329926 616.376709,457.938538 616.376709,451.963135 
	C606.175598,451.963135 596.282959,451.963135 586.063110,451.963135 
	C586.063110,442.755890 586.063110,434.127960 586.067932,424.500000 
M628.002075,451.465851 
	C636.832092,466.183136 650.593262,470.081818 666.338440,467.727509 
	C681.130249,465.515778 689.472595,455.417511 693.536316,441.634064 
	C698.387268,425.180450 693.393250,409.785492 680.632629,400.678986 
	C668.053467,391.701935 649.265686,391.565979 636.946655,400.362915 
	C622.103699,410.962158 618.105286,432.704132 628.002075,451.465851 
z"/>
<path fill="#827C7D" opacity="1.000000" stroke="none" 
	d="
M314.000000,628.205750 
	C481.307648,628.156067 648.115295,628.094116 814.922913,628.164368 
	C817.555786,628.165466 821.852173,625.867737 822.669434,630.884521 
	C823.512085,636.056824 818.663086,634.699707 816.153137,635.755310 
	C811.261780,637.812378 806.733276,640.107971 804.908630,645.575073 
	C803.161194,650.810730 805.386658,654.920044 810.757629,656.165466 
	C812.685181,656.612427 814.706970,656.847656 816.685974,656.848999 
	C852.680298,656.874023 888.675476,656.704102 924.668274,656.930908 
	C934.199524,656.990967 937.154114,649.592041 934.808105,644.550232 
	C933.702881,642.174927 931.321350,640.200867 929.125000,638.576538 
	C926.602295,636.710815 923.552551,635.571655 920.924805,633.826294 
	C920.006104,633.216125 919.096130,631.660217 919.237427,630.689819 
	C919.345215,629.948914 921.110596,628.936096 922.148254,628.924805 
	C930.625061,628.832214 939.149414,628.412292 947.571472,629.127502 
	C959.198669,630.114868 966.818542,641.019531 966.170105,654.544434 
	C965.631897,665.769531 956.809875,674.810669 945.602539,674.962158 
	C928.608337,675.192017 911.608826,675.027710 894.611572,675.029907 
	C629.651672,675.064880 364.691742,675.100037 99.731804,675.131348 
	C94.066116,675.132019 88.400246,675.109131 82.734787,675.058899 
	C71.529716,674.959595 64.781670,670.337708 61.392139,660.480652 
	C58.158993,651.078308 61.043083,639.559814 69.046600,634.000427 
	C72.801529,631.392212 77.699356,629.740295 82.269951,629.161560 
	C88.666916,628.351746 95.245834,628.826416 101.738449,629.026306 
	C103.471260,629.079773 105.173241,630.134338 106.889359,630.729248 
	C105.716057,632.264343 104.809547,634.165161 103.312851,635.256897 
	C100.372314,637.401855 96.935326,638.870483 94.016327,641.039551 
	C90.881973,643.368835 89.280945,646.668701 90.420692,650.695374 
	C91.583549,654.803833 94.807777,656.391968 98.713280,656.760498 
	C101.194237,656.994446 103.707268,656.927979 106.205933,656.928772 
	C139.867523,656.939514 173.529114,656.938354 207.190704,656.939514 
	C207.857254,656.939514 208.523911,656.937439 209.190338,656.925964 
	C216.053909,656.807434 219.698441,654.722839 220.731339,650.327637 
	C221.786438,645.837830 219.143677,641.184448 213.696152,638.350830 
	C211.192764,637.048645 208.325043,636.374023 205.987106,634.854004 
	C204.589706,633.945557 203.898239,631.951294 202.889435,630.445068 
	C204.431458,629.654663 205.971786,628.178284 207.515717,628.174438 
	C242.843567,628.087708 278.171814,628.161560 314.000000,628.205750 
z"/>
<path fill="#F9F9F9" opacity="1.000000" stroke="none" 
	d="
M867.612549,580.575684 
	C872.387146,577.585388 876.867126,574.384460 881.347107,571.183533 
	C882.907715,570.068420 884.468201,568.953186 887.305298,566.925781 
	C887.305298,583.265991 887.305298,598.247803 887.305298,613.779846 
	C893.150146,613.779846 898.065063,613.779846 902.994507,613.779846 
	C902.994507,617.113708 902.994507,619.872925 902.994507,622.932129 
	C881.087463,622.932129 859.541382,622.932129 837.896179,622.932129 
	C837.896179,619.645264 837.896179,616.574463 837.896179,613.042175 
	C843.027588,613.042175 847.798218,613.042175 853.195679,613.042175 
	C853.195679,598.573792 853.195679,584.561340 853.195679,568.999817 
	C858.663696,573.400391 862.990845,576.882751 867.612549,580.575684 
z"/>
<path fill="#FAF9FA" opacity="1.000000" stroke="none" 
	d="
M155.087936,623.223267 
	C143.960648,623.223633 133.320480,623.223633 122.337013,623.223633 
	C122.337013,620.070862 122.337013,617.176270 122.337013,613.763794 
	C127.156975,613.763794 131.903183,613.763794 137.077209,613.763794 
	C137.077209,598.311951 137.077209,583.366699 137.077209,568.421387 
	C137.494446,568.026917 137.911682,567.632446 138.328918,567.237976 
	C144.578552,571.865906 150.828201,576.493774 157.314987,581.297302 
	C161.842865,577.438660 166.433716,573.526306 172.026703,568.759949 
	C172.026703,584.461182 172.026703,598.815002 172.026703,613.795898 
	C177.495346,613.795898 182.398163,613.795898 187.150833,613.795898 
	C188.880264,622.515198 188.447876,623.092163 180.553360,623.137390 
	C172.227371,623.185120 163.901154,623.195923 155.087936,623.223267 
z"/>
<path fill="#F9F9F9" opacity="1.000000" stroke="none" 
	d="
M881.837402,332.560883 
	C876.941650,337.813721 872.263062,342.761353 867.584534,347.708984 
	C867.029602,347.482269 866.474670,347.255554 865.919739,347.028839 
	C865.919739,343.696228 865.762268,340.354614 865.952209,337.032867 
	C866.360840,329.886810 865.177490,323.393005 861.052734,317.177917 
	C856.750793,310.696075 856.014465,303.371002 860.615234,296.503723 
	C865.238159,289.603394 874.108643,287.217438 881.382629,290.511169 
	C888.865295,293.899323 892.209961,302.357758 889.666626,311.817902 
	C889.110291,313.887146 888.027222,315.809448 887.279602,317.833710 
	C885.508362,322.630127 883.792725,327.447021 881.837402,332.560883 
z"/>
<path fill="#F9F9F9" opacity="1.000000" stroke="none" 
	d="
M165.702637,297.474762 
	C169.843597,305.527252 167.969543,312.878784 163.586182,319.481445 
	C160.916809,323.502319 159.940567,327.434631 160.125656,332.051971 
	C160.324265,337.006165 160.170502,341.974487 160.170502,347.585938 
	C154.414795,342.444763 148.588196,338.261780 144.174088,332.913147 
	C141.539612,329.720917 141.142242,324.692871 139.699448,320.503754 
	C138.411972,316.765625 136.439896,313.138489 135.877899,309.300171 
	C134.549683,300.228699 138.285706,293.405151 145.430313,290.392548 
	C152.175873,287.548157 159.900131,290.142883 165.702637,297.474762 
z"/>
<path fill="#F8F8F8" opacity="1.000000" stroke="none" 
	d="
M142.074127,463.976624 
	C142.074142,451.894531 142.074142,440.308380 142.074142,428.722198 
	C142.561386,428.415833 143.048630,428.109467 143.535858,427.803101 
	C149.278320,433.374329 155.045349,438.920837 160.718750,444.561554 
	C161.196213,445.036285 161.166870,446.142944 161.168167,446.956360 
	C161.192657,462.236237 161.186172,477.516144 161.186172,493.814880 
	C154.649857,487.688507 148.164322,482.721069 143.269577,476.501648 
	C141.168457,473.831909 142.372009,468.561401 142.074127,463.976624 
z"/>
<path fill="#F7F6F6" opacity="1.000000" stroke="none" 
	d="
M864.515076,402.997620 
	C864.550476,393.182495 864.418701,383.860840 864.745544,374.555298 
	C864.823669,372.332031 865.905273,369.657654 867.435120,368.064178 
	C871.775757,363.542908 876.587158,359.473541 882.171570,354.346344 
	C882.496887,357.268951 882.847534,358.954498 882.846191,360.639740 
	C882.836304,373.615631 882.917786,386.595856 882.562012,399.563477 
	C882.493591,402.058350 881.166809,404.984619 879.483093,406.878418 
	C875.138306,411.765411 870.268921,416.186096 864.515930,421.873749 
	C864.515930,414.668152 864.515930,409.082581 864.515076,402.997620 
z"/>
<path fill="#F7F6F6" opacity="1.000000" stroke="none" 
	d="
M154.180054,364.810120 
	C160.182785,369.323029 161.644104,374.989838 161.265411,382.022064 
	C160.684326,392.812347 161.078186,403.655151 161.059555,414.475647 
	C161.056259,416.389984 161.059097,418.304291 159.879013,420.802765 
	C154.279251,415.479797 148.634827,410.202118 143.135498,404.777374 
	C142.437500,404.088867 142.249237,402.631073 142.246445,401.528595 
	C142.209976,387.046448 142.242050,372.564056 142.290024,358.081848 
	C142.292557,357.313385 142.590012,356.545929 143.068390,354.252228 
	C147.185455,358.148682 150.565125,361.347198 154.180054,364.810120 
z"/>
<path fill="#F5F5F5" opacity="1.000000" stroke="none" 
	d="
M874.207153,434.227631 
	C876.890930,431.793091 879.322205,429.605621 882.400085,426.836456 
	C882.624573,428.775543 882.851440,429.821960 882.850769,430.868256 
	C882.842163,444.161377 883.013855,457.461121 882.602417,470.742523 
	C882.511414,473.678192 880.912109,477.034790 878.987305,479.349396 
	C874.881226,484.287048 870.106934,488.669006 864.488403,494.423920 
	C864.317810,491.148651 864.158142,489.451355 864.152405,487.753510 
	C864.111389,475.623383 864.337463,463.486084 863.974854,451.366150 
	C863.812622,445.946014 864.913635,441.667206 869.580322,438.540527 
	C871.213379,437.446411 872.506348,435.844635 874.207153,434.227631 
z"/>
<path fill="#F7F6F6" opacity="1.000000" stroke="none" 
	d="
M161.094269,561.477112 
	C160.597061,562.339417 159.674057,563.221985 159.656754,563.204529 
	C153.923431,557.434570 148.228745,551.625244 142.622986,545.731445 
	C142.155182,545.239624 142.166763,544.169189 142.171646,543.368896 
	C142.255615,529.579773 142.365372,515.790771 142.506134,502.002106 
	C142.513901,501.241760 142.841095,500.484680 143.256714,498.718414 
	C149.210129,504.319458 154.730026,509.284485 159.912323,514.579895 
	C160.953903,515.644287 161.005173,517.961914 161.016876,519.705017 
	C161.109573,533.495239 161.082062,547.286316 161.094269,561.477112 
z"/>
<path fill="#F8F8F8" opacity="1.000000" stroke="none" 
	d="
M865.719299,513.997803 
	C870.990234,508.901550 876.004028,504.085754 881.972290,498.353302 
	C882.383484,501.001495 882.803772,502.473145 882.810852,503.946777 
	C882.871216,516.438904 882.909058,528.931885 882.801636,541.423279 
	C882.787048,543.122009 882.429504,545.257874 881.380981,546.432861 
	C876.309509,552.115295 870.947571,557.538574 865.292664,563.468933 
	C864.911011,562.231506 864.582947,561.663147 864.582642,561.094666 
	C864.575378,546.936951 864.578796,532.779114 864.660522,518.621704 
	C864.668884,517.172424 865.182861,515.726074 865.719299,513.997803 
z"/>
<path fill="#373234" opacity="1.000000" stroke="none" 
	d="
M212.344086,468.850647 
	C196.367630,463.118683 187.516602,451.778137 185.163376,435.679413 
	C182.975754,420.713440 188.448410,408.509827 200.732819,399.631866 
	C215.207977,389.170746 241.072357,390.544647 254.497589,402.280823 
	C259.391937,406.559448 262.493286,411.836426 264.130829,419.039551 
	C256.584961,419.039551 249.632141,419.137329 242.687180,418.947113 
	C241.474319,418.913910 240.019623,417.917023 239.141968,416.945068 
	C229.839996,406.643341 215.473068,408.420074 209.660858,421.005951 
	C205.723328,429.532410 206.669907,438.049286 212.714737,445.393433 
	C221.271454,455.789337 235.729797,453.798431 242.653305,440.780060 
	C238.221451,440.780060 234.177994,440.686096 230.140854,440.805389 
	C225.735382,440.935516 223.132385,439.682800 223.766846,434.527039 
	C224.166702,431.277863 223.841446,427.939453 223.841446,424.305908 
	C237.569595,424.305908 250.800049,424.305908 264.481018,424.305908 
	C265.865417,437.650574 263.985962,449.894257 253.982498,459.695160 
	C242.190582,471.248230 228.048279,472.853821 212.344086,468.850647 
z"/>
<path fill="#373233" opacity="1.000000" stroke="none" 
	d="
M342.060486,469.403625 
	C337.944489,469.393188 334.220581,468.968750 330.628082,469.475616 
	C325.934540,470.137787 323.717743,468.135742 323.273346,463.865997 
	C322.714539,458.496613 319.770905,457.079651 314.808960,457.731445 
	C311.694061,458.140625 308.486389,457.811829 305.321960,457.885071 
	C302.333740,457.954224 298.742462,457.152527 296.545715,458.532104 
	C294.675964,459.706299 294.592010,463.527924 293.367950,466.005341 
	C292.709961,467.337128 291.355042,469.238983 290.247345,469.285583 
	C283.167114,469.583527 276.068268,469.437408 268.291473,469.437408 
	C269.622192,465.704498 270.706818,462.623474 271.817719,459.551941 
	C279.177490,439.202820 286.659271,418.896454 293.799744,398.470734 
	C295.092834,394.771667 296.847961,393.661072 300.571289,393.825653 
	C307.056274,394.112213 313.571136,393.725342 320.055817,394.015656 
	C321.573578,394.083618 323.904633,395.411713 324.369232,396.698730 
	C333.006195,420.625000 341.416992,444.632904 350.150482,469.403839 
	C347.318329,469.403839 344.914703,469.403839 342.060486,469.403625 
M305.917755,440.985840 
	C309.219299,440.985840 312.520874,440.985840 316.553162,440.985840 
	C314.092133,432.691376 311.806641,424.988464 309.521149,417.285553 
	C309.123505,417.358276 308.725830,417.430969 308.328186,417.503662 
	C306.014557,425.174347 303.700958,432.845032 301.238495,441.009216 
	C303.092743,441.009216 304.070587,441.009216 305.917755,440.985840 
z"/>
<path fill="#353132" opacity="1.000000" stroke="none" 
	d="
M441.999878,469.249939 
	C433.529572,469.250702 425.559296,469.250702 417.201843,469.250702 
	C417.201843,444.059479 417.201843,419.190643 417.201843,393.996948 
	C434.657623,393.996948 452.053802,393.996948 469.769318,393.996948 
	C469.769318,399.439148 469.769318,404.825714 469.769318,410.773743 
	C459.357178,410.773743 449.118561,410.773743 438.627380,410.773743 
	C438.627380,414.590546 438.627380,417.850647 438.627380,421.679443 
	C446.521332,421.679443 454.254974,421.679443 462.413055,421.679443 
	C462.413055,427.783417 462.413055,433.333191 462.413055,439.586670 
	C454.675049,439.586670 446.937775,439.586670 438.896301,439.586670 
	C438.896301,444.003113 438.896301,447.729980 438.896301,451.989868 
	C449.470337,451.989868 459.877930,451.989868 470.585724,451.989868 
	C470.585724,457.901855 470.585724,463.284058 470.585724,469.249146 
	C461.054016,469.249146 451.776947,469.249146 441.999878,469.249939 
z"/>
<path fill="#3E3B3B" opacity="1.000000" stroke="none" 
	d="
M823.721619,395.600098 
	C826.087585,394.651825 828.337952,394.099182 832.180847,393.155457 
	C825.463745,419.098663 819.115723,443.616333 812.740112,468.240540 
	C809.765747,468.240540 807.137146,468.240540 804.428406,468.240540 
	C799.304260,448.463470 794.223328,428.853363 789.142395,409.243256 
	C788.741089,409.195831 788.339844,409.148407 787.938538,409.100983 
	C782.791138,428.717041 777.643738,448.333130 772.384888,468.373962 
	C770.235046,468.373962 767.853455,468.373962 765.391296,468.373962 
	C760.462402,448.250275 755.565857,428.258575 750.669312,408.266907 
	C750.212585,408.220703 749.755798,408.174500 749.299072,408.128326 
	C744.200439,428.053284 739.101807,447.978271 733.939148,468.153687 
	C731.419617,468.153687 728.996521,468.153687 725.934082,468.153687 
	C719.954468,443.815704 713.971497,419.463989 707.903625,394.766937 
	C711.118164,394.766937 713.865479,394.766937 716.638977,394.766937 
	C720.717163,414.838226 724.759644,434.733978 728.802124,454.629700 
	C729.526917,454.628876 730.251770,454.628052 730.976562,454.627228 
	C732.951599,447.362274 734.961731,440.106628 736.893677,432.830231 
	C739.969666,421.245148 743.065308,409.664215 745.986816,398.039856 
	C746.673889,395.306274 747.860901,394.276337 750.759583,394.293732 
	C753.787476,394.311951 754.676025,395.664032 755.285645,398.321259 
	C759.120850,415.038330 763.101196,431.722260 767.065735,448.409424 
	C767.630005,450.784454 768.369019,453.117950 769.121338,455.807281 
	C774.191528,436.851868 779.360352,418.493927 783.895874,399.980835 
	C785.253357,394.440002 787.855652,393.412964 792.781555,394.757172 
	C797.649597,415.054596 802.519104,435.358002 807.388611,455.661438 
	C807.875427,455.595795 808.362244,455.530151 808.849121,455.464508 
	C813.768066,435.641602 818.687073,415.818665 823.721619,395.600098 
z"/>
<path fill="#373133" opacity="1.000000" stroke="none" 
	d="
M548.582336,422.981812 
	C549.272644,428.545105 549.521973,433.948395 549.801086,439.995728 
	C541.635803,439.995728 534.243713,439.995728 526.246338,439.995728 
	C526.246338,449.993927 526.246338,459.387695 526.246338,469.019104 
	C518.901367,469.019104 512.174316,469.019104 505.106323,469.019104 
	C505.106323,444.004486 505.106323,419.249939 505.106323,393.982208 
	C521.847778,393.982208 538.573975,393.982208 555.632996,393.982208 
	C555.632996,399.258118 555.632996,404.668518 555.632996,410.632080 
	C546.239746,410.632080 536.841797,410.632080 526.970520,410.632080 
	C526.970520,414.700012 526.970520,418.233826 526.970520,422.821838 
	C533.980286,422.821838 541.060852,422.821838 548.582336,422.981812 
z"/>
<path fill="#373133" opacity="1.000000" stroke="none" 
	d="
M368.000061,393.715271 
	C381.810333,393.713470 395.120544,393.713470 408.812683,393.713470 
	C408.812683,399.377472 408.812683,404.896057 408.812683,410.804504 
	C401.703094,410.804504 394.761108,410.804504 387.228851,410.804504 
	C387.228851,430.411133 387.228851,449.647064 387.228851,469.212524 
	C379.544617,469.212524 372.449890,469.212524 364.699463,469.212524 
	C364.699463,449.963318 364.699463,430.739258 364.699463,411.009705 
	C357.832397,411.009705 351.590515,411.009705 345.033875,411.009705 
	C345.033875,405.104004 345.033875,399.706970 345.033875,393.717041 
	C352.607880,393.717041 360.053986,393.717041 368.000061,393.715271 
z"/>
<path fill="#343031" opacity="1.000000" stroke="none" 
	d="
M586.065552,425.000000 
	C586.063110,434.127960 586.063110,442.755890 586.063110,451.963135 
	C596.282959,451.963135 606.175598,451.963135 616.376709,451.963135 
	C616.376709,457.938538 616.376709,463.329926 616.376709,469.015991 
	C599.169922,469.015991 582.266907,469.015991 564.794250,469.015991 
	C564.794250,456.397034 564.794250,443.961914 564.794250,431.526794 
	C564.794250,419.214050 564.794250,406.901337 564.794250,394.205566 
	C571.872559,394.205566 578.748291,394.205566 586.067932,394.205566 
	C586.067932,404.329163 586.067932,414.414581 586.065552,425.000000 
z"/>
<path fill="#3B3939" opacity="1.000000" stroke="none" 
	d="
M627.836060,451.135681 
	C618.105286,432.704132 622.103699,410.962158 636.946655,400.362915 
	C649.265686,391.565979 668.053467,391.701935 680.632629,400.678986 
	C693.393250,409.785492 698.387268,425.180450 693.536316,441.634064 
	C689.472595,455.417511 681.130249,465.515778 666.338440,467.727509 
	C650.593262,470.081818 636.832092,466.183136 627.836060,451.135681 
M655.840393,401.050110 
	C644.146240,402.222504 636.438232,408.894897 632.672363,419.517578 
	C628.580505,431.059875 630.169495,442.235168 638.341248,451.804596 
	C647.309814,462.307068 663.628296,464.241547 674.451904,456.356537 
	C684.917542,448.732330 689.827698,432.915680 685.726074,420.039917 
	C681.898865,408.025696 671.050903,400.903961 655.840393,401.050110 
z"/>
<path fill="#F5F5F5" opacity="1.000000" stroke="none" 
	d="
M305.483093,440.997528 
	C304.070587,441.009216 303.092743,441.009216 301.238495,441.009216 
	C303.700958,432.845032 306.014557,425.174347 308.328186,417.503662 
	C308.725830,417.430969 309.123505,417.358276 309.521149,417.285553 
	C311.806641,424.988464 314.092133,432.691376 316.553162,440.985840 
	C312.520874,440.985840 309.219299,440.985840 305.483093,440.997528 
z"/>
<path fill="#FBFAFA" opacity="1.000000" stroke="none" 
	d="
M656.283997,401.026154 
	C671.050903,400.903961 681.898865,408.025696 685.726074,420.039917 
	C689.827698,432.915680 684.917542,448.732330 674.451904,456.356537 
	C663.628296,464.241547 647.309814,462.307068 638.341248,451.804596 
	C630.169495,442.235168 628.580505,431.059875 632.672363,419.517578 
	C636.438232,408.894897 644.146240,402.222504 656.283997,401.026154 
z"/>
</svg>